<?xml version="1.0" standalone="no"?>
<!DOCTYPE svg PUBLIC "-//W3C//DTD SVG 20010904//EN"
 "http://www.w3.org/TR/2001/REC-SVG-20010904/DTD/svg10.dtd">
<svg version="1.0" xmlns="http://www.w3.org/2000/svg"
 width="156.000000pt" height="156.000000pt" viewBox="0 0 156.000000 156.000000"
 preserveAspectRatio="xMidYMid meet">
<metadata>
Created by potrace 1.14, written by Peter Selinger 2001-2017
</metadata>
<g transform="translate(0.000000,156.000000) scale(0.100000,-0.100000)"
fill="#000000" stroke="none">
<path d="M770 1550 c0 -6 -4 -8 -10 -5 -5 3 -10 1 -10 -4 0 -6 -6 -10 -12 -8
-8 1 -13 -9 -14 -26 -1 -15 -8 -35 -16 -45 -18 -20 -61 -118 -61 -138 0 -8 -4
-14 -9 -14 -5 0 -6 -4 -3 -10 3 -5 1 -10 -5 -10 -6 0 -8 -4 -5 -10 3 -5 2 -10
-3 -10 -8 0 -20 -28 -26 -60 -1 -3 -5 -11 -9 -17 -5 -7 -5 -13 0 -13 4 0 2 -4
-5 -9 -7 -4 -14 -18 -15 -29 -1 -12 -4 -22 -7 -22 -11 0 -50 -77 -43 -84 3 -3
0 -6 -7 -6 -7 0 -10 -3 -7 -7 4 -3 0 -11 -9 -17 -8 -6 -16 -18 -17 -26 -2 -8
-5 -19 -9 -25 -3 -5 -9 -28 -12 -50 -4 -22 -12 -47 -19 -56 -104 -140 -147
-235 -147 -330 0 -40 -3 -49 -17 -50 -50 -2 -80 -12 -95 -30 -10 -12 -15 -25
-12 -30 3 -5 0 -9 -6 -9 -6 0 -8 -4 -5 -10 3 -5 1 -10 -4 -10 -6 0 -10 -3 -10
-8 1 -4 0 -10 -1 -14 -1 -5 -4 -12 -5 -18 -1 -5 -4 -12 -5 -15 -1 -3 -4 -9 -5
-15 -1 -5 -3 -11 -5 -12 -1 -2 -3 -10 -5 -18 -2 -8 -7 -26 -11 -40 -14 -53
-16 -175 -2 -191 21 -27 237 -39 809 -46 l517 -6 12 22 c6 13 14 65 17 116 5
81 3 99 -15 138 -21 45 -77 101 -92 92 -19 -12 -19 30 0 50 11 12 20 25 20 29
0 5 20 49 45 98 36 72 45 100 45 142 0 53 -19 86 -48 86 -7 0 -12 12 -12 28 0
21 -13 37 -57 72 -59 46 -146 165 -223 306 -22 39 -57 91 -78 115 -42 48 -72
101 -92 164 -7 22 -21 54 -31 71 -18 29 -23 31 -84 33 -42 1 -65 -2 -65 -9z
m465 -840 c20 -19 26 -19 101 -8 44 6 88 9 97 5 26 -10 21 -37 -7 -37 -39 0
-77 -19 -83 -40 -6 -24 -51 -28 -59 -5 -4 8 -10 13 -15 10 -4 -3 -13 4 -19 15
-9 18 -21 20 -95 20 -70 0 -85 -3 -85 -15 0 -13 -7 -15 -37 -9 -21 3 -45 13
-53 20 -23 22 11 47 73 55 109 13 159 10 182 -11z m189 -95 c3 -8 1 -15 -4
-15 -6 0 -10 7 -10 15 0 8 2 15 4 15 2 0 6 -7 10 -15z"/>
</g>
</svg>
