<?xml version="1.0" encoding="UTF-8" standalone="no"?>
<svg
   xmlns:dc="http://purl.org/dc/elements/1.1/"
   xmlns:cc="http://creativecommons.org/ns#"
   xmlns:rdf="http://www.w3.org/1999/02/22-rdf-syntax-ns#"
   xmlns:svg="http://www.w3.org/2000/svg"
   xmlns="http://www.w3.org/2000/svg"
   xmlns:sodipodi="http://sodipodi.sourceforge.net/DTD/sodipodi-0.dtd"
   xmlns:inkscape="http://www.inkscape.org/namespaces/inkscape"
   width="700"
   height="600"
   viewBox="0 0 185.20834 158.75"
   version="1.1"
   id="svg8"
   inkscape:version="1.0.2-2 (e86c870879, 2021-01-15)"
   sodipodi:docname="overlay.svg">
  <defs
     id="defs2" />
  <sodipodi:namedview
     id="base"
     pagecolor="#ffffff"
     bordercolor="#666666"
     borderopacity="1.0"
     inkscape:pageopacity="0.0"
     inkscape:pageshadow="2"
     inkscape:zoom="0.98994949"
     inkscape:cx="354.41234"
     inkscape:cy="255.47413"
     inkscape:document-units="mm"
     inkscape:current-layer="layer1"
     inkscape:document-rotation="0"
     showgrid="false"
     units="px"
     inkscape:window-width="1920"
     inkscape:window-height="1017"
     inkscape:window-x="1912"
     inkscape:window-y="-8"
     inkscape:window-maximized="1" />
  <metadata
     id="metadata5">
    <rdf:RDF>
      <cc:Work
         rdf:about="">
        <dc:format>image/svg+xml</dc:format>
        <dc:type
           rdf:resource="http://purl.org/dc/dcmitype/StillImage" />
        <dc:title></dc:title>
      </cc:Work>
    </rdf:RDF>
  </metadata>
  <g
     inkscape:label="Layer 1"
     inkscape:groupmode="layer"
     id="layer1">
    <path
       id="rect10"
       style="fill:#000000;fill-rule:evenodd;stroke-width:1.53553"
       d="M 0 0 L 0 600 L 700 600 L 700 0 L 0 0 z M 49.923828 10 A 39.999958 39.999958 0 0 1 50 10 A 39.999958 39.999958 0 0 1 90 50 A 39.999958 39.999958 0 0 1 50 90 A 39.999958 39.999958 0 0 1 10 50 A 39.999958 39.999958 0 0 1 49.923828 10 z M 149.92383 10 A 39.999959 39.999959 0 0 1 150 10 A 39.999959 39.999959 0 0 1 190 50 A 39.999959 39.999959 0 0 1 150 90 A 39.999959 39.999959 0 0 1 110 50 A 39.999959 39.999959 0 0 1 149.92383 10 z M 249.92383 10 A 39.99996 39.99996 0 0 1 250 10 A 39.99996 39.99996 0 0 1 290 50 A 39.99996 39.99996 0 0 1 250 90 A 39.99996 39.99996 0 0 1 210 50 A 39.99996 39.99996 0 0 1 249.92383 10 z M 349.92383 10 A 39.999961 39.999961 0 0 1 350 10 A 39.999961 39.999961 0 0 1 390 50 A 39.999961 39.999961 0 0 1 350 90 A 39.999961 39.999961 0 0 1 310 50 A 39.999961 39.999961 0 0 1 349.92383 10 z M 449.92383 10 A 39.999962 39.999962 0 0 1 450 10 A 39.999962 39.999962 0 0 1 490 50 A 39.999962 39.999962 0 0 1 450 90 A 39.999962 39.999962 0 0 1 410 50 A 39.999962 39.999962 0 0 1 449.92383 10 z M 549.92383 10 A 39.999963 39.999963 0 0 1 550 10 A 39.999963 39.999963 0 0 1 590 50 A 39.999963 39.999963 0 0 1 550 90 A 39.999963 39.999963 0 0 1 510 50 A 39.999963 39.999963 0 0 1 549.92383 10 z M 649.92383 10 A 39.999964 39.999964 0 0 1 650 10 A 39.999964 39.999964 0 0 1 690 50 A 39.999964 39.999964 0 0 1 650 90 A 39.999964 39.999964 0 0 1 610 50 A 39.999964 39.999964 0 0 1 649.92383 10 z M 49.923828 110 A 39.999965 39.999965 0 0 1 50 110 A 39.999965 39.999965 0 0 1 90 150 A 39.999965 39.999965 0 0 1 50 190 A 39.999965 39.999965 0 0 1 10 150 A 39.999965 39.999965 0 0 1 49.923828 110 z M 149.92383 110 A 39.999966 39.999966 0 0 1 150 110 A 39.999966 39.999966 0 0 1 190 150 A 39.999966 39.999966 0 0 1 150 190 A 39.999966 39.999966 0 0 1 110 150 A 39.999966 39.999966 0 0 1 149.92383 110 z M 249.92383 110 A 39.999967 39.999967 0 0 1 250 110 A 39.999967 39.999967 0 0 1 290 150 A 39.999967 39.999967 0 0 1 250 190 A 39.999967 39.999967 0 0 1 210 150 A 39.999967 39.999967 0 0 1 249.92383 110 z M 349.92383 110 A 39.999968 39.999968 0 0 1 350 110 A 39.999968 39.999968 0 0 1 390 150 A 39.999968 39.999968 0 0 1 350 190 A 39.999968 39.999968 0 0 1 310 150 A 39.999968 39.999968 0 0 1 349.92383 110 z M 449.92383 110 A 39.999969 39.999969 0 0 1 450 110 A 39.999969 39.999969 0 0 1 490 150 A 39.999969 39.999969 0 0 1 450 190 A 39.999969 39.999969 0 0 1 410 150 A 39.999969 39.999969 0 0 1 449.92383 110 z M 549.92383 110 A 39.99997 39.99997 0 0 1 550 110 A 39.99997 39.99997 0 0 1 590 150 A 39.99997 39.99997 0 0 1 550 190 A 39.99997 39.99997 0 0 1 510 150 A 39.99997 39.99997 0 0 1 549.92383 110 z M 649.92383 110 A 39.999971 39.999971 0 0 1 650 110 A 39.999971 39.999971 0 0 1 690 150 A 39.999971 39.999971 0 0 1 650 190 A 39.999971 39.999971 0 0 1 610 150 A 39.999971 39.999971 0 0 1 649.92383 110 z M 49.923828 210 A 39.999978 39.999978 0 0 1 50 210 A 39.999978 39.999978 0 0 1 90 250 A 39.999978 39.999978 0 0 1 50 290 A 39.999978 39.999978 0 0 1 10 250 A 39.999978 39.999978 0 0 1 49.923828 210 z M 149.92383 210 A 39.999977 39.999977 0 0 1 150 210 A 39.999977 39.999977 0 0 1 190 250 A 39.999977 39.999977 0 0 1 150 290 A 39.999977 39.999977 0 0 1 110 250 A 39.999977 39.999977 0 0 1 149.92383 210 z M 249.92383 210 A 39.999976 39.999976 0 0 1 250 210 A 39.999976 39.999976 0 0 1 290 250 A 39.999976 39.999976 0 0 1 250 290 A 39.999976 39.999976 0 0 1 210 250 A 39.999976 39.999976 0 0 1 249.92383 210 z M 349.92383 210 A 39.999975 39.999975 0 0 1 350 210 A 39.999975 39.999975 0 0 1 390 250 A 39.999975 39.999975 0 0 1 350 290 A 39.999975 39.999975 0 0 1 310 250 A 39.999975 39.999975 0 0 1 349.92383 210 z M 449.92383 210 A 39.999974 39.999974 0 0 1 450 210 A 39.999974 39.999974 0 0 1 490 250 A 39.999974 39.999974 0 0 1 450 290 A 39.999974 39.999974 0 0 1 410 250 A 39.999974 39.999974 0 0 1 449.92383 210 z M 549.92383 210 A 39.999973 39.999973 0 0 1 550 210 A 39.999973 39.999973 0 0 1 590 250 A 39.999973 39.999973 0 0 1 550 290 A 39.999973 39.999973 0 0 1 510 250 A 39.999973 39.999973 0 0 1 549.92383 210 z M 649.92383 210 A 39.999972 39.999972 0 0 1 650 210 A 39.999972 39.999972 0 0 1 690 250 A 39.999972 39.999972 0 0 1 650 290 A 39.999972 39.999972 0 0 1 610 250 A 39.999972 39.999972 0 0 1 649.92383 210 z M 49.923828 310 A 39.999979 39.999979 0 0 1 50 310 A 39.999979 39.999979 0 0 1 90 350 A 39.999979 39.999979 0 0 1 50 390 A 39.999979 39.999979 0 0 1 10 350 A 39.999979 39.999979 0 0 1 49.923828 310 z M 149.92383 310 A 39.99998 39.99998 0 0 1 150 310 A 39.99998 39.99998 0 0 1 190 350 A 39.99998 39.99998 0 0 1 150 390 A 39.99998 39.99998 0 0 1 110 350 A 39.99998 39.99998 0 0 1 149.92383 310 z M 249.92383 310 A 39.999981 39.999981 0 0 1 250 310 A 39.999981 39.999981 0 0 1 290 350 A 39.999981 39.999981 0 0 1 250 390 A 39.999981 39.999981 0 0 1 210 350 A 39.999981 39.999981 0 0 1 249.92383 310 z M 349.92383 310 A 39.999982 39.999982 0 0 1 350 310 A 39.999982 39.999982 0 0 1 390 350 A 39.999982 39.999982 0 0 1 350 390 A 39.999982 39.999982 0 0 1 310 350 A 39.999982 39.999982 0 0 1 349.92383 310 z M 449.92383 310 A 39.999983 39.999983 0 0 1 450 310 A 39.999983 39.999983 0 0 1 490 350 A 39.999983 39.999983 0 0 1 450 390 A 39.999983 39.999983 0 0 1 410 350 A 39.999983 39.999983 0 0 1 449.92383 310 z M 549.92383 310 A 39.999984 39.999984 0 0 1 550 310 A 39.999984 39.999984 0 0 1 590 350 A 39.999984 39.999984 0 0 1 550 390 A 39.999984 39.999984 0 0 1 510 350 A 39.999984 39.999984 0 0 1 549.92383 310 z M 649.92383 310 A 39.999985 39.999985 0 0 1 650 310 A 39.999985 39.999985 0 0 1 690 350 A 39.999985 39.999985 0 0 1 650 390 A 39.999985 39.999985 0 0 1 610 350 A 39.999985 39.999985 0 0 1 649.92383 310 z M 49.923828 410 A 39.999986 39.999986 0 0 1 50 410 A 39.999986 39.999986 0 0 1 90 450 A 39.999986 39.999986 0 0 1 50 490 A 39.999986 39.999986 0 0 1 10 450 A 39.999986 39.999986 0 0 1 49.923828 410 z M 149.92383 410 A 39.999987 39.999987 0 0 1 150 410 A 39.999987 39.999987 0 0 1 190 450 A 39.999987 39.999987 0 0 1 150 490 A 39.999987 39.999987 0 0 1 110 450 A 39.999987 39.999987 0 0 1 149.92383 410 z M 249.92383 410 A 39.999988 39.999988 0 0 1 250 410 A 39.999988 39.999988 0 0 1 290 450 A 39.999988 39.999988 0 0 1 250 490 A 39.999988 39.999988 0 0 1 210 450 A 39.999988 39.999988 0 0 1 249.92383 410 z M 349.92383 410 A 39.999989 39.999989 0 0 1 350 410 A 39.999989 39.999989 0 0 1 390 450 A 39.999989 39.999989 0 0 1 350 490 A 39.999989 39.999989 0 0 1 310 450 A 39.999989 39.999989 0 0 1 349.92383 410 z M 449.92383 410 A 39.99999 39.99999 0 0 1 450 410 A 39.99999 39.99999 0 0 1 490 450 A 39.99999 39.99999 0 0 1 450 490 A 39.99999 39.99999 0 0 1 410 450 A 39.99999 39.99999 0 0 1 449.92383 410 z M 549.92383 410 A 39.999991 39.999991 0 0 1 550 410 A 39.999991 39.999991 0 0 1 590 450 A 39.999991 39.999991 0 0 1 550 490 A 39.999991 39.999991 0 0 1 510 450 A 39.999991 39.999991 0 0 1 549.92383 410 z M 649.92383 410 A 39.999992 39.999992 0 0 1 650 410 A 39.999992 39.999992 0 0 1 690 450 A 39.999992 39.999992 0 0 1 650 490 A 39.999992 39.999992 0 0 1 610 450 A 39.999992 39.999992 0 0 1 649.92383 410 z M 49.923828 510 A 39.999999 39.999999 0 0 1 50 510 A 39.999999 39.999999 0 0 1 90 550 A 39.999999 39.999999 0 0 1 50 590 A 39.999999 39.999999 0 0 1 10 550 A 39.999999 39.999999 0 0 1 49.923828 510 z M 149.92383 510 A 39.999998 39.999998 0 0 1 150 510 A 39.999998 39.999998 0 0 1 190 550 A 39.999998 39.999998 0 0 1 150 590 A 39.999998 39.999998 0 0 1 110 550 A 39.999998 39.999998 0 0 1 149.92383 510 z M 249.92383 510 A 39.999997 39.999997 0 0 1 250 510 A 39.999997 39.999997 0 0 1 290 550 A 39.999997 39.999997 0 0 1 250 590 A 39.999997 39.999997 0 0 1 210 550 A 39.999997 39.999997 0 0 1 249.92383 510 z M 349.92383 510 A 39.999996 39.999996 0 0 1 350 510 A 39.999996 39.999996 0 0 1 390 550 A 39.999996 39.999996 0 0 1 350 590 A 39.999996 39.999996 0 0 1 310 550 A 39.999996 39.999996 0 0 1 349.92383 510 z M 449.92383 510 A 39.999995 39.999995 0 0 1 450 510 A 39.999995 39.999995 0 0 1 490 550 A 39.999995 39.999995 0 0 1 450 590 A 39.999995 39.999995 0 0 1 410 550 A 39.999995 39.999995 0 0 1 449.92383 510 z M 549.92383 510 A 39.999994 39.999994 0 0 1 550 510 A 39.999994 39.999994 0 0 1 590 550 A 39.999994 39.999994 0 0 1 550 590 A 39.999994 39.999994 0 0 1 510 550 A 39.999994 39.999994 0 0 1 549.92383 510 z M 649.92383 510 A 39.999993 39.999993 0 0 1 650 510 A 39.999993 39.999993 0 0 1 690 550 A 39.999993 39.999993 0 0 1 650 590 A 39.999993 39.999993 0 0 1 610 550 A 39.999993 39.999993 0 0 1 649.92383 510 z "
       transform="scale(0.26458333)" />
  </g>
</svg>
